<?xml version="1.0"?>
<svg xmlns="http://www.w3.org/2000/svg" xmlns:xlink="http://www.w3.org/1999/xlink" version="1.1" id="Capa_1" x="0px" y="0px" viewBox="0 0 60 60" style="enable-background:new 0 0 60 60;" xml:space="preserve" width="25px" height="25px"><g><g>
		<path d="M295.312,179.832c-0.61-1.062-1.491-1.942-2.552-2.552l-79.36-46l-0.4-0.2l-78.96-45.4    c-3.316-1.9-7.545-0.752-9.444,2.564c-0.599,1.046-0.915,2.23-0.916,3.436v183.24c0.022,3.813,3.107,6.898,6.92,6.92    c1.434-0.002,2.831-0.449,4-1.28l78.8-45.28l79.36-46C296.074,187.376,297.216,183.146,295.312,179.832z" class="active-path" data-old_color="#000000" fill="#424242CC"/>
	<path d="M30,0C13.458,0,0,13.458,0,30s13.458,30,30,30s30-13.458,30-30S46.542,0,30,0z M30,58C14.561,58,2,45.439,2,30   S14.561,2,30,2s28,12.561,28,28S45.439,58,30,58z" data-original="#000000" class="active-path" data-old_color="#000000" fill="#424242CC"/>
</g></g> </svg>
