<svg width="20px" height="20px" viewBox="0 0 32 32" fill="none" xmlns="http://www.w3.org/2000/svg">
  <path d="M31.8394 14.9069H30.3041V7.84431C30.3041 6.15113 28.9266 4.77367 27.2334 4.77367H25.154L23.026 0.947643C22.7017 0.362927 22.0845 0 21.4151 0C21.1031 0 20.7936 0.0804594 20.5203 0.232109L12.3536 4.77357H3.23129C1.53811 4.77357 0.160645 6.15103 0.160645 7.84422V28.9293C0.160645 30.6224 1.53811 31.9999 3.23129 31.9999H27.2334C28.9266 31.9999 30.3041 30.6224 30.3041 28.9293V22.7369H31.8394V14.9069ZM27.2334 6.00187C28.1791 6.00187 28.9517 6.72037 29.0555 7.63972H26.7476L25.8374 6.00187H27.2334ZM21.1178 1.3056C21.4058 1.14411 21.7934 1.25706 21.9524 1.54392L25.3424 7.63915H9.72757L21.1178 1.3056ZM29.0758 28.9293C29.0758 29.945 28.2491 30.7717 27.2333 30.7717H3.23129C2.21551 30.7717 1.38884 29.945 1.38884 28.9293V7.84431C1.38884 6.82854 2.21551 6.00187 3.23129 6.00187H10.1452L7.19979 7.63982H3.61514C3.27553 7.63982 3.00099 7.91493 3.00099 8.25397C3.00099 8.59301 3.27553 8.86812 3.61514 8.86812H4.99079H27.4305H29.0758V14.9074H24.5847C22.499 14.9074 20.8016 16.6049 20.8016 18.6905V18.9546C20.8016 21.0402 22.4991 22.7376 24.5847 22.7376H29.0758V28.9293ZM30.6111 21.5087H30.3041H24.5847C23.1759 21.5087 22.0298 20.3628 22.0298 18.9539V18.6898C22.0298 17.281 23.1758 16.135 24.5847 16.135H30.3041H30.6111V21.5087ZM26.4657 18.8723C26.4657 19.6216 25.8589 20.2283 25.1097 20.2283C24.3605 20.2283 23.7538 19.6215 23.7538 18.8723C23.7538 18.1231 24.3606 17.5164 25.1097 17.5164C25.859 17.5163 26.4657 18.1236 26.4657 18.8723Z" fill="#D2D8D8"/>
</svg>
